<?xml version="1.0" standalone="no"?>
<!DOCTYPE svg PUBLIC "-//W3C//DTD SVG 20010904//EN"
 "http://www.w3.org/TR/2001/REC-SVG-20010904/DTD/svg10.dtd">
<svg version="1.0" xmlns="http://www.w3.org/2000/svg"
 width="500.000000pt" height="500.000000pt" viewBox="0 0 500.000000 500.000000"
 preserveAspectRatio="xMidYMid meet">

<g transform="translate(0.000000,500.000000) scale(0.100000,-0.100000)"
fill="#000000" stroke="none">
<path d="M2495 3569 c-450 -61 -831 -424 -911 -865 -23 -128 -15 -365 15 -477
125 -457 524 -781 993 -804 505 -25 959 307 1095 802 25 91 28 116 28 270 0
187 -11 255 -65 394 -129 331 -414 580 -759 660 -108 25 -290 35 -396 20z
m296 -375 c120 -35 222 -112 282 -215 51 -86 58 -140 67 -479 9 -347 23 -462
69 -594 31 -91 28 -116 -15 -116 -29 0 -90 29 -130 63 -42 35 -89 57 -121 57
-15 0 -74 -23 -131 -51 -56 -28 -120 -53 -142 -56 -37 -5 -42 -3 -95 52 -55
57 -55 58 -103 52 -26 -3 -81 -22 -122 -41 -83 -40 -102 -43 -145 -20 -19 10
-49 14 -86 12 -32 -1 -60 0 -64 4 -3 3 1 33 9 66 30 115 55 291 76 529 34 401
53 473 156 582 130 139 333 202 495 155z"/>
<path d="M2563 3165 c-101 -28 -181 -75 -248 -148 -97 -104 -113 -164 -145
-552 -21 -240 -36 -356 -65 -493 -8 -40 -15 -75 -15 -78 0 -2 24 -4 53 -4 32
0 61 -6 75 -16 28 -19 62 -13 145 27 118 56 185 47 240 -31 38 -54 61 -52 198
15 63 31 126 55 143 55 35 0 72 -18 148 -72 29 -21 67 -40 85 -44 l31 -6 -28
83 c-46 135 -61 262 -70 604 -5 171 -13 329 -19 353 -28 109 -94 198 -189 256
-106 64 -224 82 -339 51z m-20 -344 c47 -56 43 -156 -8 -207 -28 -28 -42 -30
-73 -8 -49 34 -67 120 -38 188 26 62 79 74 119 27z m314 -10 c30 -45 32 -130
3 -176 -52 -84 -140 -31 -140 84 0 119 82 174 137 92z"/>
</g>
</svg>
